<svg xmlns="http://www.w3.org/2000/svg">
  <symbol id="social-facebook" viewBox="0 0 30 30" width="30px" height="30px" fill="#fff">
    <path xmlns="http://www.w3.org/2000/svg" d="M21.95 5.005l-3.306-.004c-3.206 0-5.277 2.124-5.277 5.415v2.495H10.05v4.515h3.317l-.004 9.575h4.641l.004-9.575h3.806l-.003-4.514h-3.803v-2.117c0-1.018.241-1.533 1.566-1.533l2.366-.001.01-4.256z"/>
  </symbol>
  <symbol id="social-twitter" viewBox="0 0 30 30" width="30px" height="30px" fill="#fff">
    <g id="Page-1" stroke="none" stroke-width="1" fill="#fff" fill-rule="evenodd">
        <g id="Dribbble-Light-Preview" transform="translate(-60.000000, -7521.000000)" fill="#fff">
            <g id="icons" transform="translate(56.000000, 160.000000)">
                <path d="M10.29,7377 C17.837,7377 21.965,7370.84365 21.965,7365.50546 C21.965,7365.33021 21.965,7365.15595 21.953,7364.98267 C22.756,7364.41163 23.449,7363.70276 24,7362.8915 C23.252,7363.21837 22.457,7363.433 21.644,7363.52751 C22.5,7363.02244 23.141,7362.2289 23.448,7361.2926 C22.642,7361.76321 21.761,7362.095 20.842,7362.27321 C19.288,7360.64674 16.689,7360.56798 15.036,7362.09796 C13.971,7363.08447 13.518,7364.55538 13.849,7365.95835 C10.55,7365.79492 7.476,7364.261 5.392,7361.73762 C4.303,7363.58363 4.86,7365.94457 6.663,7367.12996 C6.01,7367.11125 5.371,7366.93797 4.8,7366.62489 L4.8,7366.67608 C4.801,7368.5989 6.178,7370.2549 8.092,7370.63591 C7.488,7370.79836 6.854,7370.82199 6.24,7370.70483 C6.777,7372.35099 8.318,7373.47829 10.073,7373.51078 C8.62,7374.63513 6.825,7375.24554 4.977,7375.24358 C4.651,7375.24259 4.325,7375.22388 4,7375.18549 C5.877,7376.37088 8.06,7377 10.29,7376.99705" id="twitter-[#154]">
                </path>
            </g>
        </g>
    </g>
  </symbol>
  <symbol id="social-google" viewBox="0 0 30 30" width="30px" height="30px" fill="#fff">
    <g xmlns="http://www.w3.org/2000/svg" id="Page-1" stroke="none" stroke-width="1" fill="#fff" fill-rule="evenodd">
        <g id="Dribbble-Light-Preview" transform="translate(-300.000000, -7399.000000)" fill="#fff">
            <g id="icons" transform="translate(56.000000, 160.000000)">
                <path d="M263.821537,7247.00386 L254.211298,7247.00386 C254.211298,7248.0033 254.211298,7250.00218 254.205172,7251.00161 L259.774046,7251.00161 C259.560644,7252.00105 258.804036,7253.40026 257.734984,7254.10487 C257.733963,7254.10387 257.732942,7254.11086 257.7309,7254.10986 C256.309581,7255.04834 254.43389,7255.26122 253.041161,7254.98137 C250.85813,7254.54762 249.130492,7252.96451 248.429023,7250.95364 C248.433107,7250.95064 248.43617,7250.92266 248.439233,7250.92066 C248.000176,7249.67336 248.000176,7248.0033 248.439233,7247.00386 L248.438212,7247.00386 C249.003881,7245.1669 250.783592,7243.49084 252.969687,7243.0321 C254.727956,7242.65931 256.71188,7243.06308 258.170978,7244.42831 C258.36498,7244.23842 260.856372,7241.80579 261.043226,7241.6079 C256.0584,7237.09344 248.076756,7238.68155 245.090149,7244.51127 L245.089128,7244.51127 C245.089128,7244.51127 245.090149,7244.51127 245.084023,7244.52226 L245.084023,7244.52226 C243.606545,7247.38565 243.667809,7250.75975 245.094233,7253.48622 C245.090149,7253.48921 245.087086,7253.49121 245.084023,7253.49421 C246.376687,7256.0028 248.729215,7257.92672 251.563684,7258.6593 C254.574796,7259.44886 258.406843,7258.90916 260.973794,7256.58747 C260.974815,7256.58847 260.975836,7256.58947 260.976857,7256.59047 C263.15172,7254.63157 264.505648,7251.29445 263.821537,7247.00386" id="google-[#178]">

</path>
            </g>
        </g>
    </g>
  </symbol>
  <symbol id="social-insta" viewBox="0 0 30 30" width="30px" height="30px" fill="#fff">
    <path xmlns="http://www.w3.org/2000/svg" fill-rule="evenodd" clip-rule="evenodd" d="M12 18C15.3137 18 18 15.3137 18 12C18 8.68629 15.3137 6 12 6C8.68629 6 6 8.68629 6 12C6 15.3137 8.68629 18 12 18ZM12 16C14.2091 16 16 14.2091 16 12C16 9.79086 14.2091 8 12 8C9.79086 8 8 9.79086 8 12C8 14.2091 9.79086 16 12 16Z" fill="#fff"/>
    <path xmlns="http://www.w3.org/2000/svg" d="M18 5C17.4477 5 17 5.44772 17 6C17 6.55228 17.4477 7 18 7C18.5523 7 19 6.55228 19 6C19 5.44772 18.5523 5 18 5Z" fill="#fff"/>  
    <path xmlns="http://www.w3.org/2000/svg" fill-rule="evenodd" clip-rule="evenodd" d="M1.65396 4.27606C1 5.55953 1 7.23969 1 10.6V13.4C1 16.7603 1 18.4405 1.65396 19.7239C2.2292 20.8529 3.14708 21.7708 4.27606 22.346C5.55953 23 7.23969 23 10.6 23H13.4C16.7603 23 18.4405 23 19.7239 22.346C20.8529 21.7708 21.7708 20.8529 22.346 19.7239C23 18.4405 23 16.7603 23 13.4V10.6C23 7.23969 23 5.55953 22.346 4.27606C21.7708 3.14708 20.8529 2.2292 19.7239 1.65396C18.4405 1 16.7603 1 13.4 1H10.6C7.23969 1 5.55953 1 4.27606 1.65396C3.14708 2.2292 2.2292 3.14708 1.65396 4.27606ZM13.4 3H10.6C8.88684 3 7.72225 3.00156 6.82208 3.0751C5.94524 3.14674 5.49684 3.27659 5.18404 3.43597C4.43139 3.81947 3.81947 4.43139 3.43597 5.18404C3.27659 5.49684 3.14674 5.94524 3.0751 6.82208C3.00156 7.72225 3 8.88684 3 10.6V13.4C3 15.1132 3.00156 16.2777 3.0751 17.1779C3.14674 18.0548 3.27659 18.5032 3.43597 18.816C3.81947 19.5686 4.43139 20.1805 5.18404 20.564C5.49684 20.7234 5.94524 20.8533 6.82208 20.9249C7.72225 20.9984 8.88684 21 10.6 21H13.4C15.1132 21 16.2777 20.9984 17.1779 20.9249C18.0548 20.8533 18.5032 20.7234 18.816 20.564C19.5686 20.1805 20.1805 19.5686 20.564 18.816C20.7234 18.5032 20.8533 18.0548 20.9249 17.1779C20.9984 16.2777 21 15.1132 21 13.4V10.6C21 8.88684 20.9984 7.72225 20.9249 6.82208C20.8533 5.94524 20.7234 5.49684 20.564 5.18404C20.1805 4.43139 19.5686 3.81947 18.816 3.43597C18.5032 3.27659 18.0548 3.14674 17.1779 3.0751C16.2777 3.00156 15.1132 3 13.4 3Z" fill="#fff"/>  
  </symbol>
  <symbol id="social-linkedIn" viewBox="0 0 30 30" width="30px" height="30px" fill="#fff">
    <g xmlns="http://www.w3.org/2000/svg" id="Page-1" stroke="none" stroke-width="1" fill="#fff" fill-rule="evenodd">
        <g id="Dribbble-Light-Preview" transform="translate(-180.000000, -7479.000000)" fill="#fff">
            <g id="icons" transform="translate(56.000000, 160.000000)">
                <path d="M144,7339 L140,7339 L140,7332.001 C140,7330.081 139.153,7329.01 137.634,7329.01 C135.981,7329.01 135,7330.126 135,7332.001 L135,7339 L131,7339 L131,7326 L135,7326 L135,7327.462 C135,7327.462 136.255,7325.26 139.083,7325.26 C141.912,7325.26 144,7326.986 144,7330.558 L144,7339 L144,7339 Z M126.442,7323.921 C125.093,7323.921 124,7322.819 124,7321.46 C124,7320.102 125.093,7319 126.442,7319 C127.79,7319 128.883,7320.102 128.883,7321.46 C128.884,7322.819 127.79,7323.921 126.442,7323.921 L126.442,7323.921 Z M124,7339 L129,7339 L129,7326 L124,7326 L124,7339 Z" id="linkedin-[#161]">

</path>
            </g>
        </g>
    </g>
  </symbol>
  <symbol id="social-gitHub" viewBox="0 0 30 30" width="30px" height="30px" fill="#fff">
    <g xmlns="http://www.w3.org/2000/svg" id="Page-1" stroke="#fff" stroke-width="1" fill="fff" fill-rule="#fff">
        <g id="Dribbble-Light-Preview" transform="translate(-140.000000, -7559.000000)" fill="#fff">
            <g id="icons" transform="translate(56.000000, 160.000000)">
                <path d="M94,7399 C99.523,7399 104,7403.59 104,7409.253 C104,7413.782 101.138,7417.624 97.167,7418.981 C96.66,7419.082 96.48,7418.762 96.48,7418.489 C96.48,7418.151 96.492,7417.047 96.492,7415.675 C96.492,7414.719 96.172,7414.095 95.813,7413.777 C98.04,7413.523 100.38,7412.656 100.38,7408.718 C100.38,7407.598 99.992,7406.684 99.35,7405.966 C99.454,7405.707 99.797,7404.664 99.252,7403.252 C99.252,7403.252 98.414,7402.977 96.505,7404.303 C95.706,7404.076 94.85,7403.962 94,7403.958 C93.15,7403.962 92.295,7404.076 91.497,7404.303 C89.586,7402.977 88.746,7403.252 88.746,7403.252 C88.203,7404.664 88.546,7405.707 88.649,7405.966 C88.01,7406.684 87.619,7407.598 87.619,7408.718 C87.619,7412.646 89.954,7413.526 92.175,7413.785 C91.889,7414.041 91.63,7414.493 91.54,7415.156 C90.97,7415.418 89.522,7415.871 88.63,7414.304 C88.63,7414.304 88.101,7413.319 87.097,7413.247 C87.097,7413.247 86.122,7413.234 87.029,7413.87 C87.029,7413.87 87.684,7414.185 88.139,7415.37 C88.139,7415.37 88.726,7417.2 91.508,7416.58 C91.513,7417.437 91.522,7418.245 91.522,7418.489 C91.522,7418.76 91.338,7419.077 90.839,7418.982 C86.865,7417.627 84,7413.783 84,7409.253 C84,7403.59 88.478,7399 94,7399" id="github-[#142]">

</path>
            </g>
        </g>
    </g>
  </symbol>
  <symbol id="level-icon" viewBox="0 0 30 30" width="30px" height="30px" fill="#00000">
    <path xmlns="http://www.w3.org/2000/svg" d="M22.7,17.5l-8.1-14c-0.8-1.4-2.7-1.9-4.1-1.1C10,2.7,9.6,3.1,9.4,3.5l-8.1,14c-0.8,1.4-0.3,3.3,1.1,4.1c0.5,0.3,1,0.4,1.5,0.4h16.1c1.7,0,3-1.4,3-3C23.1,18.4,22.9,17.9,22.7,17.5z M12,18c-0.6,0-1-0.4-1-1s0.4-1,1-1s1,0.4,1,1S12.6,18,12,18z M13,13c0,0.6-0.4,1-1,1s-1-0.4-1-1V9c0-0.6,0.4-1,1-1s1,0.4,1,1V13z"/>
  </symbol>
  <symbol id="term-icon" viewBox="0 0 30 30" width="30px" height="30px" fill="none">
    <path xmlns="http://www.w3.org/2000/svg" d="M3 9H21M7 3V5M17 3V5M6 13H8M6 17H8M11 13H13M11 17H13M16 13H18M16 17H18M6.2 21H17.8C18.9201 21 19.4802 21 19.908 20.782C20.2843 20.5903 20.5903 20.2843 20.782 19.908C21 19.4802 21 18.9201 21 17.8V8.2C21 7.07989 21 6.51984 20.782 6.09202C20.5903 5.71569 20.2843 5.40973 19.908 5.21799C19.4802 5 18.9201 5 17.8 5H6.2C5.0799 5 4.51984 5 4.09202 5.21799C3.71569 5.40973 3.40973 5.71569 3.21799 6.09202C3 6.51984 3 7.07989 3 8.2V17.8C3 18.9201 3 19.4802 3.21799 19.908C3.40973 20.2843 3.71569 20.5903 4.09202 20.782C4.51984 21 5.07989 21 6.2 21Z" stroke="#000000" stroke-width="2" stroke-linecap="round" stroke-linejoin="round"/>
  </symbol>
  <symbol id="checkBox-icon" viewBox="0 0 30 30" width="30px" height="30px" fill="none">
    <path xmlns="http://www.w3.org/2000/svg" d="M5 6.2C5 5.07989 5 4.51984 5.21799 4.09202C5.40973 3.71569 5.71569 3.40973 6.09202 3.21799C6.51984 3 7.07989 3 8.2 3H15.8C16.9201 3 17.4802 3 17.908 3.21799C18.2843 3.40973 18.5903 3.71569 18.782 4.09202C19 4.51984 19 5.07989 19 6.2V21L12 16L5 21V6.2Z" stroke="#000000" stroke-width="2" stroke-linejoin="round"/>
  </symbol>
  <symbol id="kebab-icon" viewBox="0 0 30 30" width="30px" height="30px" fill="none">
  <path xmlns="http://www.w3.org/2000/svg" d="M12 20C10.8954 20 10 19.1046 10 18C10 16.8954 10.8954 16 12 16C13.1046 16 14 16.8954 14 18C14 19.1046 13.1046 20 12 20Z" fill="#000000"/>
    <circle xmlns="http://www.w3.org/2000/svg" cx="12" cy="12" r="2" transform="rotate(90 12 12)" fill="#000000"/>
    <circle xmlns="http://www.w3.org/2000/svg" cx="12" cy="6" r="2" transform="rotate(90 12 6)" fill="#000000"/>
    <path xmlns="http://www.w3.org/2000/svg" d="M12 20C10.8954 20 10 19.1046 10 18C10 16.8954 10.8954 16 12 16C13.1046 16 14 16.8954 14 18C14 19.1046 13.1046 20 12 20Z" fill="#000000"/>
  </symbol>
  <symbol id="priority-icon" viewBox="0 0 50 50" width="50px" height="50px" fill="none">
    <path xmlns="http://www.w3.org/2000/svg" d="M13 12H21M13 8H21M13 16H21M6 7V17M6 7L3 10M6 7L9 10" stroke="#000000" stroke-width="2" stroke-linecap="round" stroke-linejoin="round"/>
  </symbol>
  <symbol id="burger-icon" viewBox="0 0 50 50" width="50px" height="50px" fill="none">
    <path xmlns="http://www.w3.org/2000/svg" d="M4 18L20 18" stroke="#fff" stroke-width="2" stroke-linecap="round"/>
    <path xmlns="http://www.w3.org/2000/svg" d="M4 12L20 12" stroke="#fff" stroke-width="2" stroke-linecap="round"/>
    <path xmlns="http://www.w3.org/2000/svg" d="M4 6L20 6" stroke="#fff" stroke-width="2" stroke-linecap="round"/>
  </symbol>
  <symbol id="bell-icon" viewBox="0 0 30 30" width="30px" height="30px" fill="#fff">
    <path xmlns="http://www.w3.org/2000/svg" fill-rule="#fff" clip-rule="evenodd" d="M11.5 1C10.9477 1 10.5 1.44772 10.5 2V3H9.99998C7.23864 3 4.99999 5.23825 4.99999 7.99975V11C4.99999 11.7377 4.76718 12.5722 4.39739 13.4148C4.03165 14.2482 3.55876 15.0294 3.14142 15.6439C2.38188 16.7624 2.85216 18.5301 4.40564 18.8103C5.42144 18.9935 6.85701 19.2115 8.54656 19.3527C8.54454 19.4015 8.54352 19.4506 8.54352 19.5C8.54352 21.433 10.1105 23 12.0435 23C13.9765 23 15.5435 21.433 15.5435 19.5C15.5435 19.4482 15.5424 19.3966 15.5402 19.3453C17.1921 19.204 18.596 18.9903 19.5943 18.8103C21.1478 18.5301 21.6181 16.7624 20.8586 15.6439C20.4412 15.0294 19.9683 14.2482 19.6026 13.4148C19.2328 12.5722 19 11.7377 19 11V7.99975C19 5.23825 16.7613 3 14 3H13.5V2C13.5 1.44772 13.0523 1 12.5 1H11.5ZM12 19.5C12.5113 19.5 13.0122 19.4898 13.4997 19.4715C13.5076 20.2758 12.8541 20.9565 12.0435 20.9565C11.2347 20.9565 10.5803 20.2778 10.5872 19.4747C11.0473 19.491 11.5191 19.5 12 19.5ZM9.99998 5C8.34305 5 6.99999 6.34298 6.99999 7.99975V11C6.99999 12.1234 6.65547 13.2463 6.22878 14.2186C5.79804 15.2 5.25528 16.0911 4.79599 16.7675C4.78578 16.7825 4.78102 16.7969 4.77941 16.8113C4.77797 16.8242 4.77919 16.8362 4.78167 16.8458C6.3644 17.1303 9.00044 17.5 12 17.5C14.9995 17.5 17.6356 17.1303 19.2183 16.8458C19.2208 16.8362 19.222 16.8242 19.2206 16.8113C19.2189 16.7969 19.2142 16.7825 19.204 16.7675C18.7447 16.0911 18.2019 15.2 17.7712 14.2186C17.3445 13.2463 17 12.1234 17 11V7.99975C17 6.34298 15.6569 5 14 5H9.99998Z" fill="#fff"/>
  </symbol>
  <symbol id="trashcan-icon" viewBox="0 0 30 30" width="30px" height="30px" fill="#fff">
  <path xmlns="http://www.w3.org/2000/svg" d="M5.5 5.5A.5.5 0 0 1 6 6v6a.5.5 0 0 1-1 0V6a.5.5 0 0 1 .5-.5zm2.5 0a.5.5 0 0 1 .5.5v6a.5.5 0 0 1-1 0V6a.5.5 0 0 1 .5-.5zm3 .5a.5.5 0 0 0-1 0v6a.5.5 0 0 0 1 0V6z"/>
    <path xmlns="http://www.w3.org/2000/svg" fill-rule="evenodd" d="M14.5 3a1 1 0 0 1-1 1H13v9a2 2 0 0 1-2 2H5a2 2 0 0 1-2-2V4h-.5a1 1 0 0 1-1-1V2a1 1 0 0 1 1-1H6a1 1 0 0 1 1-1h2a1 1 0 0 1 1 1h3.5a1 1 0 0 1 1 1v1zM4.118 4 4 4.059V13a1 1 0 0 0 1 1h6a1 1 0 0 0 1-1V4.059L11.882 4H4.118zM2.5 3V2h11v1h-11z"/>
  </symbol>
  <symbol id="checkMark-icon" viewBox="0 0 30 30" width="30px" height="30px" fill="#fff">
    <path xmlns="http://www.w3.org/2000/svg" id="primary" d="M12,21h0a9,9,0,0,1-9-9H3a9,9,0,0,1,9-9h0a9,9,0,0,1,9,9h0A9,9,0,0,1,12,21ZM8,11.5l3,3,5-5" style="fill: none; stroke: #fff; stroke-linecap: round; stroke-linejoin: round; stroke-width: 1.5;"/>
  </svg>
